<svg width="715" height="690" viewBox="0 0 715 690" fill="none" xmlns="http://www.w3.org/2000/svg">
<path d="M697.5 345C697.5 525.291 545.869 672.5 357.5 672.5C169.131 672.5 17.5 525.291 17.5 345C17.5 164.709 169.131 17.5 357.5 17.5C545.869 17.5 697.5 164.709 697.5 345Z" fill="white" stroke="black" stroke-width="35"/>
<path fill-rule="evenodd" clip-rule="evenodd" d="M468 336C523.228 336 568 291.228 568 236C568 180.772 523.228 136 468 136C412.772 136 368 180.772 368 236C368 291.228 412.772 336 468 336ZM449 179C449 173.477 453.477 169 459 169H477C482.523 169 487 173.477 487 179V217.5H526C531.523 217.5 536 221.977 536 227.5V245.5C536 251.023 531.523 255.5 526 255.5H487V294C487 299.523 482.523 304 477 304H459C453.477 304 449 299.523 449 294V255.5H411C405.477 255.5 401 251.023 401 245.5V227.5C401 221.977 405.477 217.5 411 217.5H449V179Z" fill="black"/>
<path fill-rule="evenodd" clip-rule="evenodd" d="M357.198 265.828H218.207L213.467 209.321C212.692 200.081 205.454 193 196.783 193H162.75C153.499 193 146 201.024 146 210.923C146 220.822 153.499 228.846 162.75 228.846H181.47C185.577 277.807 183.773 256.304 182.439 240.395C180.45 216.68 179.503 205.398 200.735 458.51C202.102 475.062 210.461 493.024 224.86 505.228C198.899 540.703 222.619 593 264.849 593C299.899 593 324.62 555.595 312.6 520.169H404.278C392.273 555.55 416.941 593 452.029 593C480.031 593 502.813 568.624 502.813 538.661C502.813 508.699 480.031 484.322 452.029 484.322H264.962C252.238 484.322 241.15 476.108 236.364 464.141L504.059 447.307C511.367 446.848 517.55 441.361 519.326 433.762L546 319.606C534.349 329.789 520.837 337.69 506.082 342.655L489.81 412.295L231.855 428.516L221.214 301.673H376.474C368.306 291.017 361.75 278.931 357.198 265.828ZM247.567 538.661C247.567 548.858 255.32 557.154 264.849 557.154C274.378 557.154 282.131 548.858 282.131 538.661C282.131 528.465 274.378 520.169 264.849 520.169C255.32 520.169 247.567 528.465 247.567 538.661ZM434.746 538.661C434.746 548.858 442.499 557.154 452.029 557.154C461.558 557.154 469.311 548.858 469.311 538.661C469.311 528.465 461.558 520.169 452.029 520.169C442.499 520.169 434.746 528.465 434.746 538.661Z" fill="black"/>
</svg>
