<?xml version="1.0" encoding="iso-8859-1"?>
<!-- Generator: Adobe Illustrator 21.0.0, SVG Export Plug-In . SVG Version: 6.00 Build 0)  -->
<svg version="1.1" id="Capa_1" xmlns="http://www.w3.org/2000/svg" xmlns:xlink="http://www.w3.org/1999/xlink" x="0px" y="0px"
	 viewBox="0 0 512 512" style="enable-background:new 0 0 512 512;" xml:space="preserve">
<g>
	<g>
		<path d="M325.732,262.651c-4.057-0.83-8.02,1.791-8.848,5.849c-5.87,28.764-31.476,49.641-60.884,49.641c-34.264,0-62.14-27.876-62.14-62.141c0-34.265,27.876-62.141,62.14-62.141c29.393,0,54.995,20.863,60.877,49.609c0.831,4.059,4.796,6.673,8.851,5.844c4.058-0.83,6.675-4.793,5.844-8.852c-7.304-35.694-39.087-61.602-75.573-61.602c-42.535,0-77.14,34.605-77.14,77.141c0,42.536,34.605,77.141,77.14,77.141c36.505,0,68.292-25.924,75.581-61.641C332.409,267.441,329.792,263.479,325.732,262.651z"/>
	</g>
</g>
<g>
	<g>
		<path d="M453.805,258.681c-0.749-0.895-1.519-1.788-2.287-2.681c0.768-0.893,1.537-1.786,2.287-2.681c34.992-41.764,46.361-80.865,32.014-110.1c-11.887-24.224-39.69-38.626-80.403-41.651c-4.137-0.305-7.729,2.794-8.035,6.924c-0.307,4.131,2.793,7.729,6.924,8.035c24.481,1.819,56.159,9.073,68.048,33.3c11.407,23.244,0.455,57.454-30.046,93.859c-0.308,0.368-0.629,0.734-0.94,1.102c-19.801-20.811-44.313-40.93-72.157-59.339c-3.06-23.784-7.67-46.411-13.717-67.26c7.406-0.919,14.66-1.565,21.72-1.91c4.137-0.202,7.328-3.72,7.125-7.857c-0.203-4.138-3.722-7.326-7.857-7.125c-8.285,0.405-16.814,1.196-25.537,2.352c-3.108-9.231-6.509-18.059-10.207-26.403C318.659,27.433,288.565,0,256,0c-15.375,0-30.161,6.059-44.032,17.984c-6.212-3.471-13.361-5.458-20.968-5.458c-23.788,0-43.14,19.353-43.14,43.141c0,14.365,7.064,27.104,17.894,34.949c-1.63,4.243-3.195,8.588-4.689,13.034c-9.659-1.278-19.086-2.114-28.209-2.47c-54.445-2.119-92.329,12.805-106.675,42.04c-14.347,29.234-2.978,68.336,32.014,110.1c0.75,0.895,1.519,1.788,2.287,2.681c-0.768,0.893-1.537,1.786-2.287,2.681c-34.992,41.764-46.361,80.865-32.014,110.1c6.732,13.72,18.586,24.282,35.248,31.479c-0.052,0.866-0.087,1.737-0.087,2.616c0,23.788,19.353,43.141,43.14,43.141c21.396,0,39.195-15.659,42.559-36.118c4.607-0.409,9.278-0.927,14.011-1.555c3.108,9.234,6.511,18.065,10.21,26.412C193.341,484.567,223.435,512,256,512s62.659-27.433,84.736-77.245c3.702-8.354,7.108-17.193,10.218-26.435c11.692,1.563,22.995,2.461,33.777,2.654c4.809,18.575,21.712,32.334,41.769,32.334c23.788,0,43.14-19.353,43.14-43.14c0-3.547-0.439-6.991-1.25-10.292c7.596-5.916,13.45-12.989,17.428-21.095C500.166,339.547,488.797,300.445,453.805,258.681z M371.356,205.028c22.989,16.065,43.283,33.281,59.972,50.972c-16.69,17.691-36.983,34.907-59.972,50.972c1.506-16.601,2.283-33.656,2.283-50.972C373.639,238.684,372.862,221.629,371.356,205.028z M352.58,174.898c-14.24-8.666-29.208-16.876-44.753-24.505c-10.162-4.987-20.371-9.621-30.571-13.903c21.671-7.228,42.956-12.649,63.27-16.097C345.565,137.394,349.604,155.69,352.58,174.898z M223.779,27.666C234.234,19.267,245.044,15,256,15c25.892,0,51.778,24.902,71.023,68.323c3.186,7.189,6.148,14.752,8.879,22.646c-25.599,4.502-52.591,11.98-79.886,22.112c-27.316-10.147-54.295-17.611-79.895-22.109c1.028-2.979,2.089-5.91,3.182-8.79c3.723,1.05,7.643,1.625,11.697,1.625c23.788,0,43.14-19.353,43.14-43.14C234.141,44.987,230.23,35.208,223.779,27.666z M162.86,55.667c0-15.517,12.624-28.141,28.14-28.141s28.14,12.624,28.14,28.141c0,15.517-12.624,28.14-28.14,28.14S162.86,71.184,162.86,55.667zM171.513,120.38c20.308,3.445,41.587,8.868,63.261,16.102c-10.215,4.286-20.433,8.922-30.598,13.91c-15.531,7.621-30.485,15.824-44.712,24.48C162.443,155.683,166.482,137.381,171.513,120.38z M39.647,149.827c11.406-23.243,45.152-35.509,92.625-33.659c7.863,0.307,15.964,0.98,24.26,2.008c-6.035,20.852-10.647,43.502-13.714,67.255c-27.856,18.414-52.377,38.539-72.184,59.357c-0.311-0.367-0.632-0.734-0.94-1.102C39.192,207.281,28.242,173.071,39.647,149.827zM140.646,306.972C117.656,290.907,97.362,273.691,80.672,256c16.695-17.697,36.996-34.918,59.995-50.988c-1.52,16.644-2.305,33.713-2.305,50.988C138.362,273.317,139.14,290.371,140.646,306.972z M104.484,431.016c-15.517,0-28.14-12.624-28.14-28.141c0-15.517,12.624-28.141,28.14-28.141c15.516,0,28.14,12.624,28.14,28.141C132.623,418.392,120,431.016,104.484,431.016z M146.864,394.852c-3.772-19.966-21.335-35.118-42.38-35.118c-17.583,0-32.732,10.579-39.444,25.701c-12.055-5.679-20.589-13.477-25.391-23.263c-11.407-23.244-0.455-57.454,30.046-93.859c0.308-0.368,0.629-0.734,0.94-1.102c19.801,20.811,44.313,40.93,72.157,59.339c3.059,23.782,7.669,46.406,13.715,67.254C153.26,394.209,150.045,394.558,146.864,394.852z M159.422,337.102c14.24,8.666,29.208,16.876,44.753,24.505c10.132,4.972,20.343,9.605,30.567,13.885c-21.658,7.218-42.957,12.648-63.27,16.104C166.433,374.598,162.396,356.306,159.422,337.102z M327.023,428.677C307.779,472.098,281.893,497,256,497c-25.892,0-51.778-24.902-71.023-68.323c-3.188-7.194-6.153-14.763-8.885-22.663c25.62-4.515,52.657-12.007,79.948-22.131c27.291,10.1,54.34,17.584,79.878,22.101C333.184,413.895,330.216,421.474,327.023,428.677z M340.536,391.574c-20.243-3.458-41.546-8.884-63.223-16.098c10.198-4.277,20.39-8.901,30.513-13.869c15.546-7.629,30.514-15.84,44.753-24.505C349.606,356.298,345.572,374.583,340.536,391.574z M301.218,348.141c-14.996,7.359-30.128,13.949-45.191,19.722c-15.09-5.774-30.247-12.363-45.244-19.722c-18.989-9.319-37.073-19.511-53.955-30.338c-2.282-19.925-3.466-40.65-3.466-61.803c0-21.085,1.189-41.834,3.489-61.818c16.875-10.821,34.952-21.009,53.932-30.323c15.037-7.379,30.178-13.976,45.23-19.75c15.032,5.771,30.161,12.368,45.205,19.75c18.989,9.319,37.073,19.511,53.955,30.338c2.282,19.925,3.466,40.65,3.466,61.803c0,21.153-1.183,41.877-3.466,61.803C338.292,328.629,320.206,338.822,301.218,348.141z M426.5,428.307c-15.517,0-28.14-12.623-28.14-28.14s12.624-28.141,28.14-28.141c15.516,0,28.14,12.624,28.14,28.141C454.641,415.684,442.018,428.307,426.5,428.307z M472.354,362.172c-2.459,5.011-5.95,9.52-10.372,13.495c-7.793-11.252-20.787-18.641-35.481-18.641c-22.364,0-40.803,17.106-42.931,38.92c-9.001-0.212-18.388-0.94-28.072-2.152c6.045-20.845,10.653-43.466,13.712-67.244c27.845-18.409,52.356-38.527,72.157-59.339c0.311,0.367,0.632,0.734,0.94,1.102C472.809,304.719,483.76,338.929,472.354,362.172z"/>
	</g>
</g>
<g>
</g>
<g>
</g>
<g>
</g>
<g>
</g>
<g>
</g>
<g>
</g>
<g>
</g>
<g>
</g>
<g>
</g>
<g>
</g>
<g>
</g>
<g>
</g>
<g>
</g>
<g>
</g>
<g>
</g>
</svg>
