<svg id="Capa_1" enable-background="new 0 0 512 512" height="512" viewBox="0 0 512 512" width="512" xmlns="http://www.w3.org/2000/svg"><g><path d="m479.65 248.5h-96.967c3.202-5.018 5.067-10.969 5.067-17.35v-198.8c0-17.838-14.512-32.35-32.35-32.35h-198.8c-17.838 0-32.35 14.512-32.35 32.35v198.8c0 6.382 1.865 12.332 5.067 17.35h-96.967c-17.838 0-32.35 14.512-32.35 32.35v198.8c0 17.838 14.512 32.35 32.35 32.35h198.8c9.977 0 18.911-4.542 24.85-11.665 5.939 7.123 14.873 11.665 24.85 11.665h198.8c17.838 0 32.35-14.512 32.35-32.35v-198.8c0-17.838-14.512-32.35-32.35-32.35zm-248.5 248.5h-198.8c-9.567 0-17.35-7.783-17.35-17.35v-198.8c0-9.567 7.783-17.35 17.35-17.35h198.8c9.567 0 17.35 7.783 17.35 17.35v198.8c0 9.567-7.783 17.35-17.35 17.35zm265.85-17.35c0 9.567-7.783 17.35-17.35 17.35h-198.8c-9.567 0-17.35-7.783-17.35-17.35v-198.8c0-9.567 7.783-17.35 17.35-17.35h24.851c4.142 0 7.5-3.358 7.5-7.5s-3.358-7.5-7.5-7.5h-149.101c-9.567 0-17.35-7.783-17.35-17.35v-198.8c0-9.567 7.783-17.35 17.35-17.35h198.8c9.567 0 17.35 7.783 17.35 17.35v198.8c0 9.567-7.783 17.35-17.35 17.35h-16.563c-4.142 0-7.5 3.358-7.5 7.5s3.358 7.5 7.5 7.5h140.813c9.567 0 17.35 7.783 17.35 17.35z"/><path d="m264.837 70.604c-.026-.069-.053-.138-.081-.206-1.577-3.833-5.271-6.307-9.415-6.307-.004 0-.008 0-.012 0-4.147.004-7.842 2.488-9.412 6.328-.023.056-.045.112-.067.169l-44.407 116.596c-1.474 3.871.468 8.204 4.339 9.678 3.873 1.475 8.204-.469 9.678-4.339l9.22-24.208h60.997l9.128 24.187c1.134 3.003 3.987 4.854 7.019 4.854.879 0 1.775-.156 2.646-.485 3.875-1.462 5.832-5.79 4.369-9.665zm-34.443 82.711 24.926-65.445 24.698 65.445z"/><path d="m161.87 375.927c5.642-5.91 9.117-13.904 9.117-22.7 0-18.145-14.761-32.906-32.906-32.906h-32.071c-4.142 0-7.5 3.358-7.5 7.5v110.412c0 1.995.795 3.908 2.208 5.315 1.406 1.4 3.309 2.185 5.292 2.185h.033c.295-.001 29.609-.131 37.64-.131 20.523 0 37.219-16.696 37.219-37.219 0-13.92-7.686-26.072-19.032-32.456zm-23.788-40.605c9.873 0 17.906 8.033 17.906 17.906s-8.033 17.906-17.906 17.906c-2.34 0-24.572.03-24.572.03v-35.841h24.572zm5.601 95.28c-5.488 0-20.836.06-30.173.099v-44.487c3.825-.016 30.173-.051 30.173-.051 12.252 0 22.219 9.968 22.219 22.22s-9.967 22.219-22.219 22.219z"/><path d="m423.674 416.903c-3.173-2.662-7.904-2.248-10.566.926-1.158 1.381-2.411 2.673-3.723 3.842-6.751 6.013-15.267 9.062-25.31 9.062-26.305 0-47.706-21.401-47.706-47.706s21.401-47.706 47.706-47.706c9.561 0 18.783 2.816 26.667 8.143 3.433 2.318 8.095 1.416 10.414-2.016 2.319-3.433 1.416-8.095-2.016-10.414-10.375-7.009-22.5-10.713-35.065-10.713-34.576 0-62.706 28.129-62.706 62.706s28.13 62.706 62.706 62.706c13.638 0 25.84-4.447 35.286-12.86 1.853-1.65 3.616-3.468 5.24-5.404 2.661-3.174 2.247-7.905-.927-10.566z"/></g></svg>