<svg width="715" height="690" viewBox="0 0 715 690" fill="none" xmlns="http://www.w3.org/2000/svg">
<path d="M697.5 345C697.5 525.291 545.869 672.5 357.5 672.5C169.131 672.5 17.5 525.291 17.5 345C17.5 164.709 169.131 17.5 357.5 17.5C545.869 17.5 697.5 164.709 697.5 345Z" fill="white" stroke="black" stroke-width="35"/>
<path d="M528.816 203.023C509.087 180.637 481.717 168.309 451.75 168.309C409.603 168.309 382.92 193.481 367.957 214.598C364.075 220.078 360.773 225.573 358 230.743C355.227 225.573 351.926 220.078 348.043 214.598C333.08 193.481 306.397 168.309 264.25 168.309C234.283 168.309 206.913 180.638 187.184 203.024C168.365 224.379 158 252.979 158 283.555C158 316.839 170.995 347.796 198.895 380.977C223.83 410.634 259.702 441.202 301.242 476.6C316.721 489.791 332.728 503.431 349.77 518.341L350.281 518.79C352.491 520.724 355.245 521.691 358 521.691C360.755 521.691 363.509 520.723 365.719 518.79L366.23 518.341C383.272 503.431 399.279 489.791 414.76 476.598C456.298 441.203 492.17 410.634 517.105 380.977C545.005 347.795 558 316.839 558 283.555C558 252.979 547.635 224.379 528.816 203.023ZM399.557 458.761C386.213 470.131 372.48 481.834 358 494.422C343.52 481.835 329.787 470.132 316.441 458.759C235.145 389.484 181.438 343.717 181.438 283.555C181.438 258.688 189.723 235.591 204.767 218.52C219.984 201.255 241.109 191.747 264.25 191.747C296.382 191.747 317.153 211.542 328.919 228.148C339.473 243.042 344.98 258.056 346.858 263.819C348.429 268.644 352.927 271.909 358 271.909C363.073 271.909 367.571 268.644 369.142 263.819C371.02 258.056 376.527 243.042 387.081 228.148C398.847 211.542 419.618 191.747 451.75 191.747C474.891 191.747 496.016 201.255 511.232 218.52C526.277 235.591 534.562 258.688 534.562 283.555C534.562 343.717 480.855 389.484 399.557 458.761Z" fill="black"/>
</svg>
