<svg width="715" height="690" viewBox="0 0 715 690" fill="none" xmlns="http://www.w3.org/2000/svg">
<path d="M697.5 345C697.5 525.291 545.869 672.5 357.5 672.5C169.131 672.5 17.5 525.291 17.5 345C17.5 164.709 169.131 17.5 357.5 17.5C545.869 17.5 697.5 164.709 697.5 345Z" fill="white" stroke="black" stroke-width="35"/>
<path fill-rule="evenodd" clip-rule="evenodd" d="M540 212C540 267.228 495.228 312 440 312C384.772 312 340 267.228 340 212C340 156.772 384.772 112 440 112C495.228 112 540 156.772 540 212ZM503.86 209.742L502.353 207.715C502.091 207.361 495.802 198.961 485.027 190.541C470.608 179.272 454.895 173.316 439.587 173.316C424.281 173.316 408.567 179.272 394.147 190.541C383.375 198.958 377.084 207.36 376.822 207.713L375.313 209.742C374.51 210.823 374.51 212.35 375.313 213.431L376.821 215.46C377.084 215.813 383.379 224.218 394.147 232.633C408.566 243.902 424.28 249.858 439.587 249.858C454.894 249.858 470.608 243.902 485.027 232.633C495.806 224.21 502.091 215.813 502.351 215.462L503.861 213.431C504.664 212.35 504.664 210.823 503.86 209.742ZM439.587 241.01C424.31 241.01 411.926 227.836 411.926 211.587C411.926 195.337 424.31 182.164 439.587 182.164C454.864 182.164 467.248 195.337 467.248 211.587C467.248 227.836 454.864 241.01 439.587 241.01ZM420.661 211.587C420.661 200.469 429.136 191.455 439.588 191.455C450.04 191.455 458.513 200.469 458.513 211.586C458.513 222.704 450.04 231.718 439.587 231.718C429.135 231.718 420.661 222.705 420.661 211.587ZM439.587 226.967C447.56 226.966 454.046 220.066 454.047 211.586C454.046 209.876 452.743 208.489 451.135 208.489C449.526 208.489 448.223 209.876 448.223 211.586C448.223 216.651 444.349 220.772 439.587 220.773C438.784 220.772 438.056 221.119 437.529 221.679C437.001 222.24 436.675 223.014 436.676 223.87C436.676 225.58 437.98 226.967 439.587 226.967Z" fill="black"/>
<path fill-rule="evenodd" clip-rule="evenodd" d="M329.832 202H278.585H265.271C243.093 202 225.053 219.121 225.053 240.16C225.053 240.348 225.079 240.53 225.105 240.711C225.118 240.801 225.131 240.891 225.141 240.982C225.112 260.416 224.858 438.992 225.112 462.467C225.105 462.661 225.091 462.854 225.076 463.046C225.057 463.308 225.037 463.571 225.037 463.838C225.037 484.068 241.73 500.629 262.727 501.88C263.149 501.942 263.562 502 263.999 502H482.667C487.264 502 490.999 498.46 490.999 494.094V464.333C490.999 459.97 487.264 456.427 482.667 456.427C478.071 456.427 474.335 459.971 474.335 464.333V486.188H265.259C252.597 486.188 242.261 476.649 241.753 464.754C241.758 464.672 241.767 464.591 241.776 464.51C241.791 464.384 241.805 464.257 241.802 464.125C241.794 463.778 241.782 463.237 241.773 462.519C242.502 450.812 252.742 441.489 265.259 441.489H480.617C481.277 441.489 481.916 441.4 482.529 441.261C482.578 441.261 482.619 441.269 482.668 441.269C487.265 441.269 491 437.729 491 433.364V308.045C475.631 316.206 458.097 320.83 439.482 320.83C378.731 320.83 329.482 271.581 329.482 210.83C329.482 207.858 329.6 204.913 329.832 202ZM279.273 232.253C274.673 232.253 270.94 235.795 270.94 240.16V400.757C270.94 405.118 274.673 408.663 279.273 408.663C283.872 408.663 287.605 405.119 287.605 400.757V240.16C287.605 235.795 283.872 232.253 279.273 232.253Z" fill="black"/>
</svg>
